<svg xmlns="http://www.w3.org/2000/svg" xmlns:xlink="http://www.w3.org/1999/xlink" width="114" zoomAndPan="magnify" viewBox="0 0 85.5 77.999999" height="104" preserveAspectRatio="xMidYMid meet" version="1.0"><defs><clipPath id="8437c2a307"><path d="M 0 0.226562 L 84.257812 0.226562 L 84.257812 77.027344 L 0 77.027344 Z M 0 0.226562 " clip-rule="nonzero"/></clipPath><clipPath id="606ebf461f"><path d="M 28 5 L 32 5 L 32 10 L 28 10 Z M 28 5 " clip-rule="nonzero"/></clipPath><clipPath id="3b868794f4"><path d="M 28.609375 5.734375 L 31.570312 6.101562 L 31.109375 9.800781 L 28.148438 9.433594 Z M 28.609375 5.734375 " clip-rule="nonzero"/></clipPath><clipPath id="0b2ac1c291"><path d="M 28.609375 5.734375 L 31.570312 6.101562 L 31.109375 9.800781 L 28.148438 9.433594 Z M 28.609375 5.734375 " clip-rule="nonzero"/></clipPath></defs><g clip-path="url(#8437c2a307)"><path fill="#764640" d="M 83.429688 29.28125 C 82.421875 24.304688 80.210938 19.390625 76.390625 15.945312 C 74.171875 14.089844 71.695312 12.378906 68.835938 11.71875 C 67.882812 11.589844 66.800781 11.289062 65.871094 11.597656 C 65.78125 11.683594 65.710938 11.761719 65.652344 11.847656 C 65.832031 10.636719 66.023438 9.433594 66.160156 8.222656 C 66.167969 8.019531 66.082031 7.832031 65.960938 7.683594 C 66.386719 6.6875 66.296875 5.519531 65.367188 4.492188 C 64.066406 3.074219 60.773438 1.835938 58.878906 1.332031 C 57.183594 0.964844 55.511719 0.453125 53.761719 0.414062 C 52.234375 0.328125 50.703125 0.390625 49.175781 0.367188 C 47.394531 0.253906 45.59375 0.210938 43.804688 0.269531 C 43.164062 0.390625 42.34375 -0.0078125 41.820312 0.464844 C 41.488281 0.882812 41.875 1.46875 42.214844 1.742188 C 43.546875 2.511719 45.457031 1.816406 46.953125 1.917969 C 50.066406 1.929688 53.203125 1.816406 56.304688 2.167969 C 59.03125 2.648438 61.820312 3.46875 64.011719 5.230469 C 64.707031 6.234375 63.96875 7.683594 62.949219 8.171875 C 62.429688 8.472656 61.8125 8.457031 61.234375 8.523438 C 60.144531 8.683594 59.046875 8.816406 57.945312 8.691406 C 56.597656 8.589844 55.410156 7.933594 54.128906 7.609375 C 51.566406 7.238281 48.9375 6.730469 46.730469 5.304688 C 45.300781 4.488281 43.707031 3.941406 42.488281 2.792969 C 41.417969 1.925781 40.105469 1.394531 38.867188 0.808594 C 37.164062 0.0898438 35.117188 0.0898438 33.453125 0.910156 C 30.261719 1.875 28.78125 4.644531 27.78125 7.636719 C 27.617188 7.523438 27.429688 7.464844 27.238281 7.496094 C 26.753906 7.597656 26.214844 7.496094 25.714844 7.503906 C 23.136719 7.289062 20.609375 7.660156 18.09375 8.164062 C 14.820312 8.847656 11.550781 9.753906 8.574219 11.300781 C 6.023438 12.792969 3.414062 14.402344 1.71875 16.898438 C 1.332031 17.496094 1.039062 18.097656 0.828125 18.695312 C 0.683594 18.804688 0.609375 18.996094 0.644531 19.179688 C 0.261719 20.503906 0.0820312 21.890625 0.136719 23.277344 C 0.433594 25.140625 1.519531 26.816406 2.507812 28.386719 C 5.40625 31.480469 9.878906 31.386719 13.886719 30.921875 C 15.550781 31.5625 17.230469 32.285156 18.878906 33.015625 C 20.265625 33.792969 21.589844 34.699219 23.023438 35.394531 C 25.210938 36.222656 27.085938 37.644531 28.929688 39.046875 C 30.46875 40.042969 31.738281 41.375 33.222656 42.441406 C 34.203125 43.019531 34.875 43.949219 35.722656 44.6875 C 36.804688 45.699219 37.933594 46.65625 38.835938 47.835938 C 39.765625 48.953125 40.863281 49.921875 41.730469 51.089844 C 42.132812 51.722656 42.550781 52.347656 43.058594 52.902344 C 44.738281 54.871094 46.394531 56.898438 47.851562 59.042969 C 47.285156 59.335938 46.832031 60.261719 46.542969 60.730469 C 45.898438 62.074219 45.339844 63.46875 44.871094 64.886719 C 44.417969 66.121094 43.964844 67.378906 44.046875 68.722656 C 44.066406 72.402344 44.800781 76.761719 49.210938 77.246094 C 50.96875 77.28125 52.15625 76.601562 53.234375 75.261719 C 54.082031 74.453125 54.917969 73.542969 55.125 72.351562 C 55.46875 70.566406 55.261719 68.71875 55.257812 66.910156 C 55.128906 64.757812 54.742188 62.65625 53.972656 60.636719 C 53.875 60.347656 53.773438 60.066406 53.667969 59.785156 C 53.757812 59.8125 53.847656 59.832031 53.945312 59.835938 C 54.15625 59.847656 54.355469 59.746094 54.476562 59.578125 C 55.429688 58.664062 56.445312 57.804688 57.457031 56.960938 C 59.636719 55.0625 62.105469 53.589844 64.628906 52.203125 C 65.277344 51.730469 67.496094 51.164062 67.695312 50.449219 C 67.699219 50.417969 67.699219 50.382812 67.699219 50.351562 C 68.21875 50.398438 68.738281 50.441406 69.257812 50.472656 C 71.726562 50.59375 74.167969 50.242188 76.390625 49.097656 C 78.132812 48.050781 79.949219 46.847656 81.074219 45.121094 C 81.851562 43.9375 82.640625 42.726562 83.050781 41.367188 C 83.160156 41.128906 83.269531 40.855469 83.289062 40.585938 C 83.800781 39.449219 84.105469 38.203125 84.195312 36.699219 C 84.492188 34.199219 84.054688 31.695312 83.433594 29.277344 Z M 66.835938 13.019531 C 69.066406 13.058594 71.125 14.007812 72.976562 15.1875 C 76.226562 17.042969 78.699219 20.058594 80.191406 23.46875 C 82.257812 28.496094 83.851562 34.296875 82.09375 39.640625 C 82.050781 39.75 81.996094 39.855469 81.945312 39.960938 C 81.933594 39.976562 81.914062 39.992188 81.898438 40.011719 C 81.890625 40.058594 81.875 40.097656 81.863281 40.144531 C 81.136719 41.621094 79.960938 42.84375 78.835938 44.03125 C 77.683594 44.976562 76.265625 45.480469 74.90625 46.039062 C 73.34375 46.480469 71.714844 46.503906 70.097656 46.449219 C 68.558594 46.476562 67.070312 46.292969 65.640625 45.703125 C 63.519531 45 61.539062 43.953125 59.84375 42.480469 C 58.632812 41.546875 57.367188 40.636719 56.339844 39.5 C 55.648438 38.523438 54.777344 37.671875 54.1875 36.628906 C 53.484375 35.316406 52.457031 34.214844 51.644531 32.972656 C 51.605469 32.910156 51.5625 32.847656 51.523438 32.789062 C 52.324219 32.816406 53.136719 32.789062 53.933594 32.820312 C 57.824219 32.84375 61.875 32.328125 65.128906 30.019531 C 65.894531 29.332031 66.636719 28.429688 66.503906 27.335938 C 66.523438 26.085938 66.382812 24.765625 65.617188 23.742188 C 65.386719 23.421875 65.195312 23.167969 65.023438 22.96875 C 65.039062 22.699219 64.988281 22.386719 64.96875 22.09375 C 64.972656 20.9375 65.003906 19.78125 65.054688 18.628906 C 65.007812 16.566406 65.261719 14.527344 65.558594 12.496094 C 65.714844 12.875 66.246094 13.121094 66.835938 13.019531 Z M 64.269531 24.097656 C 64.953125 24.871094 64.976562 25.972656 64.957031 26.949219 C 64.816406 28.949219 62.023438 29.75 60.421875 30.328125 C 58.6875 31.019531 56.867188 31.039062 55.03125 31.09375 C 53.34375 31.09375 51.625 31.199219 49.957031 30.914062 C 49.957031 30.914062 49.957031 30.914062 49.953125 30.914062 C 49.472656 30.398438 49.011719 29.871094 48.652344 29.257812 C 48.082031 28.460938 47.445312 27.710938 46.859375 26.921875 C 49.199219 26.964844 51.539062 26.78125 53.875 26.605469 C 54.808594 26.617188 55.726562 26.523438 56.621094 26.238281 C 57.527344 26.160156 58.394531 25.984375 59.261719 25.703125 C 60.945312 25.25 62.882812 25.277344 64.269531 24.09375 Z M 54.828125 9.175781 C 57.15625 10.304688 59.75 10.5 62.269531 10.011719 C 63.070312 10.023438 63.832031 9.785156 64.46875 9.382812 C 64.089844 11.066406 63.667969 12.742188 63.5625 14.476562 C 63.351562 16.367188 63.308594 18.273438 63.203125 20.171875 C 63.273438 20.882812 63.054688 21.933594 63.265625 22.699219 C 62.9375 22.910156 62.53125 23.171875 61.945312 23.398438 C 59.796875 23.804688 57.707031 24.429688 55.539062 24.710938 C 53.964844 25.140625 52.289062 24.996094 50.664062 25.167969 C 49.207031 25.25 47.753906 25.3125 46.296875 25.289062 C 46.085938 25.316406 45.851562 25.300781 45.625 25.296875 C 45.03125 24.6875 44.3125 24.195312 43.730469 23.574219 C 41.972656 21.894531 39.617188 21.203125 37.402344 20.355469 C 34.621094 18.898438 31.441406 19.144531 28.410156 19.234375 C 28.058594 19.214844 27.714844 19.226562 27.371094 19.261719 C 28.703125 17.445312 29.132812 15.183594 29.683594 13.035156 C 30.125 11.332031 30.878906 9.71875 31.449219 8.054688 C 32.515625 5.542969 33.53125 3.863281 36.300781 3.042969 C 37.34375 2.871094 38.390625 2.476562 39.40625 2.960938 C 39.835938 3.230469 40.417969 3.148438 40.828125 3.40625 C 41.183594 3.605469 41.488281 3.882812 41.847656 4.082031 C 41.980469 4.144531 42.105469 4.179688 42.214844 4.191406 C 42.351562 4.296875 42.488281 4.410156 42.621094 4.523438 C 43.820312 5.453125 45.25 5.964844 46.554688 6.703125 C 49.054688 8.214844 51.984375 8.789062 54.835938 9.183594 Z M 2.445312 20.203125 C 3.191406 17.421875 5.554688 15.480469 7.925781 14.050781 C 12.117188 11.238281 17.179688 10.171875 22.074219 9.3125 C 23.425781 8.992188 25.917969 9.445312 27.359375 8.945312 C 27.023438 10.078125 26.734375 11.210938 26.417969 12.257812 C 26.234375 12.925781 26.035156 13.585938 25.796875 14.234375 C 25.289062 15.558594 25.144531 17.019531 24.429688 18.261719 C 24.273438 18.589844 24.039062 18.867188 23.835938 19.164062 C 23.664062 19.539062 23.824219 19.898438 24.105469 20.144531 C 23.371094 20.433594 22.640625 20.746094 21.910156 21.019531 C 19 22.183594 15.96875 22.960938 12.929688 23.699219 C 10.410156 24.007812 5.480469 25.113281 3.410156 23.601562 C 2.238281 22.875 2.113281 21.417969 2.441406 20.199219 Z M 46.351562 72.617188 C 46.171875 71.445312 46.035156 70.253906 46.035156 69.070312 C 46.054688 66.289062 47.359375 63.660156 48.417969 61.136719 C 48.5 60.960938 48.625 60.796875 48.746094 60.636719 C 49.019531 61.222656 49.265625 61.820312 49.496094 62.421875 C 49.28125 62.578125 49.113281 62.828125 49.054688 63.148438 C 47.800781 66.066406 47.042969 69.34375 47.644531 72.507812 C 47.871094 73.488281 48.125 74.757812 48.757812 75.628906 C 47.5625 75.285156 46.722656 73.925781 46.351562 72.617188 Z M 51.542969 72.132812 C 51.53125 73.058594 51.402344 74.019531 50.859375 74.792969 C 50.734375 74.847656 50.609375 74.902344 50.492188 74.972656 C 50.445312 74.917969 50.394531 74.863281 50.363281 74.792969 C 49.257812 72.824219 49.195312 70.507812 49.472656 68.320312 C 49.589844 67.113281 49.929688 65.929688 50.332031 64.785156 C 50.339844 64.800781 50.34375 64.820312 50.347656 64.835938 C 50.835938 67.253906 51.925781 69.628906 51.546875 72.132812 Z M 53.285156 72.078125 C 53.210938 72.394531 53.085938 72.683594 52.925781 72.949219 C 52.9375 72.699219 52.945312 72.457031 52.941406 72.230469 C 53.253906 70.128906 52.742188 68.046875 52.15625 66.039062 C 51.601562 63.519531 50.703125 61.066406 49.601562 58.734375 C 48.242188 56.554688 46.613281 54.53125 44.980469 52.546875 C 43.871094 51.496094 43.226562 50.082031 42.179688 48.980469 C 40.925781 47.726562 39.851562 46.304688 38.617188 45.035156 C 37.765625 44.320312 36.9375 43.578125 36.171875 42.773438 C 35.433594 41.859375 34.375 41.324219 33.507812 40.558594 C 33 40.046875 32.488281 39.542969 31.902344 39.117188 C 29.742188 37.652344 27.78125 35.878906 25.421875 34.71875 C 23.183594 33.925781 21.390625 32.269531 19.164062 31.453125 C 18.40625 31.171875 17.65625 30.847656 16.90625 30.53125 C 17.90625 30.40625 18.90625 30.308594 19.910156 30.234375 C 20.046875 30.515625 20.351562 30.789062 20.625 30.882812 C 21.230469 31.3125 21.777344 31.839844 22.46875 32.140625 C 24.058594 32.882812 25.679688 33.542969 27.261719 34.296875 C 28.449219 34.898438 29.542969 35.65625 30.710938 36.296875 C 31.832031 37.144531 32.839844 38.148438 33.875 39.105469 C 35.503906 40.359375 36.667969 42.097656 38.351562 43.296875 C 40.222656 45.5625 42.503906 47.4375 44.429688 49.65625 C 46.773438 51.921875 48.777344 54.535156 50.625 57.214844 C 52.128906 59.765625 53.101562 62.738281 53.324219 65.691406 C 53.507812 67.804688 53.609375 69.988281 53.285156 72.085938 Z M 50.738281 54.695312 C 49.375 52.875 47.816406 51.179688 46.316406 49.5 C 44.664062 47.941406 43.234375 46.160156 41.539062 44.636719 C 40.742188 43.945312 40.210938 43.003906 39.410156 42.324219 C 38.804688 41.878906 38.246094 41.382812 37.679688 40.890625 C 36.429688 39.414062 34.921875 38.207031 33.480469 36.917969 C 31.4375 34.984375 28.90625 33.648438 26.386719 32.433594 C 25.160156 31.808594 23.84375 31.382812 22.644531 30.695312 C 22.371094 30.519531 22.101562 30.308594 21.824219 30.113281 C 22.007812 30.105469 22.199219 30.09375 22.382812 30.085938 C 25.003906 29.660156 27.660156 29.820312 30.273438 30.234375 C 32.585938 30.519531 34.738281 31.390625 36.78125 32.480469 C 37.933594 32.886719 38.972656 33.507812 40.019531 34.125 C 42.199219 35.101562 44.160156 36.460938 46.054688 37.902344 C 47.351562 38.878906 48.863281 39.542969 50.054688 40.652344 C 53.292969 43.335938 56.515625 46.148438 60.203125 48.199219 C 59.71875 48.359375 59.28125 48.621094 58.84375 48.882812 C 58.058594 49.414062 52.3125 52.609375 50.738281 54.6875 Z M 58.273438 54.0625 C 56.527344 55.371094 54.8125 56.734375 53.390625 58.398438 C 53.296875 58.476562 53.222656 58.558594 53.167969 58.644531 C 52.75 57.769531 52.269531 56.925781 51.738281 56.117188 C 51.835938 56.011719 51.921875 55.890625 52.011719 55.773438 C 52.519531 55.183594 53.144531 54.714844 53.746094 54.226562 C 54.980469 53.246094 56.398438 52.527344 57.667969 51.59375 C 58.96875 50.734375 60.296875 49.882812 61.804688 49.480469 C 61.976562 49.394531 62.085938 49.277344 62.144531 49.148438 C 63.128906 49.535156 64.152344 49.808594 65.195312 50.003906 C 62.835938 51.269531 60.464844 52.523438 58.273438 54.066406 Z M 61.796875 47.445312 C 57.082031 45.117188 53.425781 41.210938 49.152344 38.25 C 46.734375 36.71875 44.539062 34.820312 41.957031 33.554688 C 39.023438 32.003906 36.167969 30.246094 32.976562 29.242188 C 29.640625 28.359375 26.132812 27.960938 22.695312 28.320312 C 21.246094 28.554688 19.773438 28.484375 18.316406 28.660156 C 16.398438 28.859375 14.5 29.199219 12.582031 29.34375 C 9.65625 29.640625 5.351562 29.933594 3.65625 27.019531 C 3.203125 26.246094 2.847656 25.617188 2.582031 25.011719 C 3.472656 25.582031 4.621094 25.9375 6.019531 25.980469 C 10.832031 26.101562 15.582031 24.90625 20.148438 23.472656 C 22.554688 22.675781 24.878906 21.566406 27.320312 20.902344 C 28.941406 20.769531 30.574219 20.816406 32.203125 20.8125 C 33.863281 20.78125 35.476562 21.132812 36.960938 21.878906 C 38.386719 22.5 39.953125 22.808594 41.238281 23.710938 C 42.527344 24.503906 43.648438 25.613281 44.679688 26.710938 C 45.289062 27.71875 46.066406 28.605469 46.789062 29.535156 C 47.4375 30.316406 47.863281 31.269531 48.6875 31.902344 C 49.996094 33.269531 50.9375 34.9375 52.171875 36.378906 C 53.796875 39.089844 55.867188 41.527344 58.496094 43.320312 C 60.5625 45.023438 62.878906 46.410156 65.453125 47.1875 C 66.898438 47.792969 68.417969 47.917969 69.972656 47.917969 C 72.054688 47.953125 74.242188 48.015625 76.195312 47.191406 C 76.21875 47.183594 76.234375 47.175781 76.253906 47.167969 C 75.007812 47.964844 73.628906 48.554688 72.199219 48.875 C 68.707031 49.203125 65.023438 48.917969 61.796875 47.453125 Z M 61.796875 47.445312 " fill-opacity="1" fill-rule="nonzero"/></g><path fill="#764640" d="M 66.101562 17.933594 C 66.402344 18.0625 66.734375 18.070312 67.039062 18.199219 C 68.765625 18.398438 70.101562 19.628906 71.742188 20.082031 C 72.855469 20.132812 72.578125 18.890625 71.753906 18.625 C 70.167969 17.75 68.554688 16.816406 66.710938 16.679688 C 65.746094 16.558594 65.171875 17.335938 66.101562 17.9375 Z M 66.101562 17.933594 " fill-opacity="1" fill-rule="nonzero"/><path fill="#764640" d="M 75.640625 23.886719 C 77.847656 23.863281 74.425781 19.429688 73.40625 19.742188 C 72.070312 20.179688 73.683594 21.371094 74.035156 21.996094 C 74.617188 22.574219 74.730469 23.710938 75.636719 23.886719 Z M 75.640625 23.886719 " fill-opacity="1" fill-rule="nonzero"/><path fill="#764640" d="M 70.371094 31.78125 C 69.820312 32.632812 69.730469 33.648438 69.65625 34.625 C 69.636719 34.636719 69.445312 34.472656 69.429688 34.460938 C 68.339844 33.742188 66.460938 33.105469 65.460938 34.261719 C 64.507812 35.390625 64.878906 36.945312 65.832031 37.9375 C 66.3125 38.550781 67.070312 38.765625 67.730469 39.117188 C 68.5625 39.667969 69.523438 39.941406 70.429688 40.339844 C 71.488281 40.832031 72.535156 41.375 73.679688 41.628906 C 74.878906 41.691406 74.640625 40.195312 74.523438 39.402344 C 74.402344 38.558594 74.402344 37.695312 74.476562 36.847656 C 74.648438 35.265625 74.921875 33.644531 74.554688 32.070312 C 74.078125 29.617188 71.382812 29.765625 70.375 31.78125 Z M 70.996094 36.207031 C 71.359375 35.957031 71.351562 35.492188 71.28125 35.105469 C 71.246094 34.054688 71.347656 32.871094 72.160156 32.109375 C 72.296875 31.980469 72.507812 31.824219 72.699219 31.925781 C 73.652344 34.398438 72.230469 37.175781 72.921875 39.742188 C 71.246094 38.957031 69.523438 38.296875 67.925781 37.359375 C 67.15625 37.101562 66.234375 36.152344 66.804688 35.332031 C 68.34375 34.960938 69.617188 37.066406 70.59375 36.652344 C 70.796875 36.578125 70.914062 36.394531 70.996094 36.207031 Z M 70.996094 36.207031 " fill-opacity="1" fill-rule="nonzero"/><g clip-path="url(#606ebf461f)"><g clip-path="url(#3b868794f4)"><g clip-path="url(#0b2ac1c291)"><path fill="#764640" d="M 31.003906 6.234375 C 30.929688 6.1875 30.839844 6.179688 30.757812 6.210938 C 30.644531 6.261719 30.53125 6.304688 30.433594 6.371094 C 30.136719 6.558594 29.972656 6.863281 29.769531 7.179688 C 29.734375 7.078125 29.703125 7.007812 29.679688 6.9375 C 29.574219 6.605469 29.398438 6.316406 29.191406 6.039062 C 29.191406 6.039062 29.191406 6.035156 29.1875 6.035156 C 29 5.78125 28.589844 5.90625 28.574219 6.222656 C 28.574219 6.253906 28.574219 6.289062 28.574219 6.324219 C 28.597656 6.929688 28.691406 7.523438 28.894531 8.097656 C 29.023438 8.480469 29.164062 8.859375 29.296875 9.246094 C 29.320312 9.316406 29.332031 9.390625 29.347656 9.46875 C 29.363281 9.546875 29.445312 9.59375 29.519531 9.5625 C 29.582031 9.535156 29.636719 9.484375 29.6875 9.417969 C 29.859375 9.175781 30.078125 8.964844 30.234375 8.707031 C 30.429688 8.390625 30.671875 8.101562 30.867188 7.78125 C 31.011719 7.539062 31.144531 7.28125 31.230469 7.011719 C 31.363281 6.582031 31.335938 6.4375 31.003906 6.234375 Z M 28.730469 6.640625 L 28.875 7.582031 C 28.753906 7.277344 28.683594 6.96875 28.730469 6.640625 Z M 29.253906 7.199219 C 29.234375 7.058594 29.214844 6.914062 29.199219 6.773438 L 29.246094 6.765625 L 29.300781 7.195312 Z M 29.671875 7.359375 C 29.585938 7.113281 29.503906 6.867188 29.421875 6.625 C 29.585938 6.84375 29.683594 7.082031 29.671875 7.359375 Z M 29.460938 7.351562 C 29.546875 7.597656 29.605469 7.84375 29.585938 8.109375 C 29.484375 7.867188 29.492188 7.605469 29.460938 7.351562 Z M 29.441406 9.304688 C 29.359375 9.226562 29.3125 9.125 29.339844 8.957031 L 29.558594 9.289062 C 29.523438 9.296875 29.460938 9.324219 29.441406 9.304688 Z M 29.863281 8.753906 L 29.847656 8.75 L 29.890625 8.386719 L 29.910156 8.386719 Z M 30.1875 8.308594 L 30.125 8.300781 C 30.179688 8.054688 30.234375 7.808594 30.289062 7.5625 L 30.316406 7.566406 C 30.273438 7.8125 30.230469 8.0625 30.1875 8.308594 Z M 30.511719 7.765625 L 30.484375 7.761719 L 30.515625 7.605469 L 30.53125 7.605469 Z M 30.542969 7.226562 L 30.503906 7.210938 L 30.621094 6.757812 L 30.667969 6.769531 C 30.625 6.921875 30.585938 7.074219 30.542969 7.226562 Z M 30.785156 7.433594 C 30.78125 7.199219 30.871094 6.980469 30.9375 6.761719 C 30.96875 7.003906 30.898438 7.226562 30.785156 7.433594 Z M 31.085938 6.765625 L 31.019531 6.554688 C 31 6.496094 30.929688 6.46875 30.875 6.496094 L 30.824219 6.527344 C 30.847656 6.46875 30.851562 6.410156 30.875 6.402344 C 30.984375 6.359375 31.101562 6.441406 31.109375 6.5625 C 31.113281 6.625 31.09375 6.6875 31.085938 6.765625 Z M 31.085938 6.765625 " fill-opacity="1" fill-rule="nonzero"/></g></g></g></svg>