<svg xmlns="http://www.w3.org/2000/svg" width="192" height="141" viewBox="0 0 144 105.75"><defs><clipPath id="a"><path d="M.168 0h143.66v105.5H.168Zm0 0"/></clipPath><clipPath id="b"><path d="M129 40h10v12h-10Zm0 0"/></clipPath><clipPath id="c"><path d="m130.07 40.172 8.91 1.113-1.39 11.137-8.91-1.113Zm0 0"/></clipPath><clipPath id="d"><path d="m130.07 40.172 8.91 1.113-1.39 11.137-8.91-1.113Zm0 0"/></clipPath></defs><path fill="#f2ddd8" d="M136.047 76.418c-.156 1.887-1.762 3.66-3.004 5.047-2.89 3.23-7.125 6.676-11.27 8.09-.925.312-4 1.242-4.8.992-.621-.192-.645-1.106-.157-1.445.641-.454 2.868-1.075 3.793-1.524 6.11-2.96 9.805-6.644 14.864-10.82.18-.149.257-.395.566-.328ZM15.754 63.734c.07.262-.223.114-.27.192-.687 1.265-1.976 2.203-2.89 3.398-2.078 2.735-3.254 5.547-3.184 9.028.008.64.54 1.726-.328 2.109-1.277.555-1.977-2.969-2.012-3.805-.125-3.433 2.98-7.523 5.602-9.52.781-.6 2.113-1.616 3.074-1.39Zm0 0"/><g clip-path="url(#a)"><path fill="#f2ddd8" d="M42.332 75.762c2.293.203 4.211 1.343 6.348 1.945 2.347.664 4.855.742 7.261 1.356 1.817.46 3.782 1.433 5.614 1.863 4.504 1.058 9.597-1.086 14.261-.926 1.016.031 2.192.281 3.243.324 3.66.137 7.433-.437 11.07-.812 8.176-.848 15.957-2.121 23.738-4.88 3.524-1.241 10.988-4.097 11.149-8.538.02-.754-.579-2.09-.489-2.426.227-.906.61.27.633.305.711.902 1.2 1.457 1.153 2.754-.036 1.039-.688 1.851-.801 2.62-.395 2.551-.024 3.47-1.66 5.817-6.223 8.898-26.825 11.793-36.954 12.797-7.953.777-16.91 1.379-24.87 1.469-1.923.023-3.786-.07-5.68-.34-1.176 3.23-4.848 4.844-8.145 4.722-2.992-.113-5.375-1.628-8.05-2.507-5.176-1.707-9.446 1.761-14.516-1.426-2.61-1.637-2.293-3.094-3.196-5.59-.757-2.102-2.437-2.394-3.648-3.984-2.191-2.883-1.152-6.575 2.836-6.168-.578-1.547-1.809-4.043-.656-5.567.16-.207.59-.285.632-.543.047-.215-.394-.746-.453-1.129-.222-1.367.285-2.949 1.618-3.492v-.234c-1.606-1.797-2.688-4-2.848-6.43-5.25 3.797-11.215 6.52-14.84 12.14-6.64 10.302 2.688 18.536 11.082 23.177 19.254 10.652 48.945 11.668 70.395 8.89 16.453-2.125 40.351-7.363 51.464-20.601 6.54-7.782 3.434-12.953-3.5-18.735-1.988-1.664-4.753-3.152-6.582-4.8-2.078-1.876.438-.985 1.465-.5 9.028 4.226 19.664 13.203 11.692 23.582-8.97 11.68-26.532 18.062-40.47 21.156-21.355 4.719-45.038 5.601-66.487.969-10.953-2.36-28.164-8.696-32.75-19.922-5.422-13.293 8.75-21.559 18.703-26.336.144-1.39 1.027-4.485 2.168-5.309.406-.293.925-.191 1.129-.668-.578-1.254-1.41-2.414-1.594-3.883-.258-2.168.476-3.402.488-5.027 0-1.332-.531-1.828-.101-3.5.336-1.332 1.457-3.074 2.687-3.648-1.426-1.829-2.203-4.09-2.578-6.36-.293-1.75-.211-1.23-.867-2.71-2.824-6.438 5.441-13.712 10.39-16.5C46.395-.11 73.04-.844 89.473.948c9.722 1.063 29.058 5.32 34.414 14.356 1.386 2.34.62 2.812.812 5.039.043.55.52 1.433.598 2.168.168 1.613-.27 3.547-.973 5.004-.562 1.172-1.547 2.168-2.09 3.351 1.606.07 3.22 3.051 3.254 4.485 0 .476-.304 1.109-.258 1.457.032.226.473.644.61.949 1.375 3.117 1.015 6.21-1.098 8.879-.27.336-2.031 1.886-1.851 2.12 1.921.747 3.875 2.688 3.535 4.927-.09.609-.688 1.398-.746 1.695-.043.223.96 2.133.734 3.668-.758 5.207-9.598 8.89-14.082 10.062.258 5.727-6.031 8.63-6.766 1.446-1.953.453-3.625 1.48-5.57 2.07-11.855 3.625-24.203 5.148-36.476 3.082-6.336-1.062-14.594-2.36-20.614-4.258-.52-.172-2.664-.847-2.765-1.3-.172-.778 1.308.035 1.547.081 8.175 1.477 17.585 3.364 25.84 4.075 10.492.894 21.456-1.207 31.624-3.657 2.133-.52 4.176-1.367 6.336-1.707.02-1.535.067-3.062-.328-4.55-.418.043-.656.37-1.097.46-.247.047-.497-.101-.622-.078-.156.024-.168.34-.359.43-3.762 1.797-12.91 3.649-17.02 3.422-3.39-.191-6.945-1.277-10.246-1.457-2.843-.156-5.125 1.016-7.847 1.41-5.094.734-11.09-1.375-16.23-2.043-3.333-.43-6.856-.238-10.063-1.32-.656-.227-1.278-.621-1.942-.813.145 1.75.371 3.512.235 5.285-.157 2-.957 4.067-.969 6.098 1.082.067 2.258-.09 3.332 0Zm78.05-61.574C109.587 3.39 83.34 2.172 68.985 2.733 56.461 3.23 29.941 6.156 24.066 19.27c-2.597 5.816 1.864 8.449 6.711 10.14.97-5.656 5.004-8.941 10.13-10.863 2.058-.77 4.948-1.29 6.628-2.8 1.922-1.727-.281-2.126-.652-3.727-.801-3.41 4.617-5.625 7.238-6.11 3.207-.601 7.68-.305 10.977-.082.78.059 2.28.512 2.894.453.79-.078 3.082-1.164 4.055-1.468 1.906-.61 5.578-1.852 7.484-1.547 1.324.214 5.899 2.937 7.266 3.797.562.347 2.766 1.703 3.047 2.066.363.45.597 2.18.68 2.824.09.742.269 2.18.144 2.867-.125.688-.45.973-1.05 1.22-1.49.644-3.852 1.116-5.5 1.66A384 384 0 0 0 73.48 21.37c-.543-.101-1.265.18-1.683.18-2.328-.043-7.309-3.14-9.125-4.664-1.313-1.094-2.012-1.446-1.852-3.309.157-1.863.813-3.547 1.774-5.058l2.27-1.063c-4.587-.16-9.329-1.062-13.634 1.074-.89.438-2.98 1.715-2.757 2.867.113.555 1.379 1.602 1.64 2.282.778 2.043-1.75 3.886-3.289 4.754-4.008 2.27-8.254 2.304-11.543 6.18-4.808 5.667-.89 10.41-1.297 16.429-.214 3.2-2.066 6.328-1.636 9.59.257 2 2.144 3.187 2.843 4.957 1.02 2.59-.054 4.984-.246 7.558-.191 2.575 1.117 5.059.032 7.68-.418 1.016-1.274 1.785-1.66 2.89-.676 1.942-.407 5.739-3.184 5.93-1.051.067-2.711-.699-3.637-1.207-1.344-.734-5.941-4.992-7.004-2.293-1.058 2.7 2.735 4.188 3.988 5.961 1.81 2.543.61 4.746 4.52 6.055 4.266 1.434 7.883-.531 12.398.926 3.864 1.242 7.399 3.726 11.668 2.078.496-.191 3.977-2.227 2.45-2.7-.754-.238-2.282-.226-3.172-.394-2.961-.566-10.457-3.129-12.39-5.332-3.661-4.156-.645-9.949-.52-14.445.046-1.57-.555-3.184-.563-4.652 0-1.38.438-2.723.336-4.223-.191-2.621-1.793-5.117-1.953-7.805-.191-3.355 2.043-5.387 1.953-9.117-.09-4.086-.812-6.355 1.559-10.152 4.03-6.426 17.316-9.485 22.656-3.457 3.41 3.863.894 6.937 1.14 11.183.079 1.297.668 2.551.801 3.75.418 3.692-2.18 9.215-2.425 13.317-.126 2.078-.024 8.105 3.464 6.39 3.493-1.715.996-7.566.77-10.617-.137-1.852-.395-7.059 2.766-6.176.476.133 1.843 1.422 2.292.801.77-1.086-.765-3.273-.945-4.586-.351-2.55 1.13-4.336 1.906-6.617 1.637-4.766 2.27-8.695 7.805-10.57 6.336-2.149 7.555 3.625 12.516 4.879 4.3 1.082 6.445-3.672 11.133-.407 4.687 3.262 2.757 7.215 1.593 11.348-1.289 4.574-.441 4.8 1.051 8.777 1.309 3.477-.668 5.614-.453 8.91.148 2.34 1.469 4.54 1.64 6.98.11 1.685-.226 3.477.223 5.138.906 3.32 2.68.203 2.848-1.715.441-4.824-3.14-7.852-2.395-12.637.25-1.605.961-3.187 1.22-4.8.733-4.622-1.774-7.77-1.423-12.165.352-4.394 4.192-9.633.813-13.484-2.102-2.406-9.52-5.14-5.68-9.602 1.172-1.355 8.934-5.218 3.422-6.36-3.57-.733-7.453 1.368-11.07.34-1.739-.495-2.88-2.011-4.38-2.777-.937-.476-3.456-.906-3.921-1.617-.903-1.355 2.023-.969 2.656-.855 2.621.437 3.445 1.476 5.543 2.586 2.621 1.386 4.813.539 7.5.449 2.09-.066 6.89.238 7.027 3.039.133 2.8-5.738 5.309-5.648 7.453.09 1.965 4.246 4.473 5.535 6.192 3.219 4.28.742 8.988.324 13.742 3.504-3.543 8.043-5.938 11.125-9.938 1.414-1.84 2.68-4.097 2.453-6.492-2.113 3.195-5.523 6.313-9.07 7.836-.61.262-3.41 1.3-2.066-.113.8-.848 2.836-1.93 3.886-2.778 2.395-1.91 6.582-5.953 6.457-9.226-.054-1.492-1.41-3.254-2.437-4.282Zm-32.14.25c.156-.184-.215-4.293-.465-4.633C86.242 8.675 84.684 7.523 83 6.62c-.79-.43-2.7-1.457-3.512-1.523-.68-.059-2.656.597-3.422.824-4.472 1.297-8.855 3.129-13.496 3.816.024 1.805.032 3.59-.261 5.375l8.98 4.371c.34.078.18-.035.227-.226.12-.543.437-2.211.18-2.61-.204-.304-3.286-2.132-3.864-2.472-.766-.461-4.2-2-4.281-2.723-.078-.723.61-.633 1.097-.437 1.422.55 4.055 2.156 5.454 2.992.668.394 2.949 1.648 3.128 2.234.305.985-.113 1.977-.246 2.938l15.258-4.73Zm15.426 26.167c1.39-3.187 2.168-7.039-1.219-9.218-3.386-2.18-4.734.578-7.68 1.039-2.632.41-4.902-.63-6.914-2.2-2.617-2.046-3.972-5.195-7.87-2.996-4.462 2.508-4.79 6.473-6.032 10.97 5.895-1.208 11.973-1.434 17.938-2.305 3.511-.52 7.394-1.696 10.773-2.067 1.422-.16 2.734.317 1.184 1.512-1.22.95-7.758 2.566-9.575 2.95-6.765 1.41-13.77 1.175-20.625.745-.328 1.05-1.117 2.383-1.164 3.488-.011.317.239 2.157.329 2.418.07.192.351.09.496.102l-.325.156c.418 2.578-1.109 5.254-3.898 3.739l.16 2.285c.766-.16 1.68.144 2.371.144 5.692.012 12.004-.226 17.695-.633 4.79-.34 9.512-1.082 14.231-1.953-.992-2.113-.938-4.11-.484-6.347-5.004 1.402-10.153 2.656-15.36 3.093-3.797.317-8.402.465-12.187.16-.36-.035-1.864-.19-1.864-.566 0-.125.395-.371.567-.406 1.058-.203 3.148-.067 4.383-.168 3.918-.34 8.117-.746 12.004-1.32 4.406-.657 8.707-1.832 13.078-2.61Zm-72.8-10.21c-2.813 0-5.31-1.47-7.477-3.094 1.175 4.258 4.414 7.262 7.882 9.758.352.066.25-.16.239-.407-.035-1.039-.543-2.465-.645-3.582a16.5 16.5 0 0 1 0-2.675m30.562 6.82c.633-2.414 1.488-4.73-.395-6.832-3.629-4.008-11.828-1.887-15.8.62-.317.204-2.454 1.911-2.485 2.067-.07.317.426.43.64.489 2.692.71 5.829 1.254 8.598 1.804 3.149.633 6.356 1.016 9.453 1.84Zm49.906 9.273c0-.258.047-.46.238-.656.496-.527 2.848-1.672 3.66-2.2 2.438-1.593 7.817-4.87 8.516-7.737.406-1.684-.305-2.36-.95-3.704-.237-.496.024-.937-.812-1.3-2.89 3.32-6.71 7.172-10.695 9.136-.418.203-.793.567-1.242.293l.215 2.149 1.082 4.031ZM31.84 38.2c-1.008.395-2.711-.61-3.625-1.176-1.235-.746-2.262-1.738-3.117-2.89-.149-.078-.543.418-.555.453-.191.473-.758 2.11-.813 2.562-.578 4.372 3.704 6.891 7.047 8.528 1.016-2.328 1.535-4.957 1.063-7.477m29.262.328c-.622.114-1.22.336-1.864.328-1.82-.023-4.89-.816-6.754-1.222-3.625-.801-7.218-1.84-10.629-3.32-.347.082-1.242 2.417-1.343 2.87-.102.45-.43 2.54-.36 2.88.133.687.633.226 1.16.269 1.301.102 4.102 1.211 5.614 1.547 3.683.828 7.476 1.367 11.183 2.059.192.03.18.347.246.406.036.023.985-.407.793.101-.25.633-.925.293-1.355.305-3.074.066-14.23-.984-16.852-2.09-.261-.113-.406-.305-.644-.406.137 2.234-.442 4.293-1.469 6.258 3.152.968 6.438 1.672 9.703 2.168 2.168.336 4.617.71 6.797.836 1.887.113 4.09-.387 5.774.484.066-2.348 1.5-5.027 1.105-7.363-.168-.973-1.094-2.407-1.094-3.457v-2.688Zm50.234 14.309c5.785-3.445 14.379-5.648 13.496-14.074-.02-.168-.078-.563-.246-.551-.172.012-1.684 2.168-2.113 2.598-2.258 2.222-6.2 4.687-9.192 5.77-.62.226-1.312.608-1.945.25.352 2 .441 4.019 0 6.019Zm-86.547-8.55c-.8-.755-1.352-1.477-2.043-2.349.149 1.028.035 2.079.238 3.094.688 3.625 3.782 5.703 7.082 6.82-.293-1.636-.046-3.105.329-4.706-2.227-.286-4-1.368-5.594-2.872Zm85.906 17c.313.066.598-.071.89-.15 1.919-.562 4.825-1.874 6.688-2.745 4.122-1.93 9.915-5.047 3.907-9.27-2.813 2.145-6.032 3.828-9.512 4.64-.55.126-.914.294-1.5.114-.781 2.438-1.332 4.914-.473 7.41m-49.922-8.294c-1.445.817-3.183.715-4.789.645-1.75-.067-3.601-.282-5.34-.508-4.136-.531-8.515-1.469-12.222-3.387-.508 1.016-.52 2.946-.043 3.953.144.305.316.282.574.407 1.402.664 4.27 1.253 5.863 1.613 4.403.996 9.024 1.367 13.36 2.406.586.149 1.82.262 1.953.895Zm43.73-2.765c-7.882 2.777-16.5 2.914-24.788 2.925-1.965 0-4.024.125-6.008 0-1.437-.078-2.883-.394-4.316-.484.394 2.031.328 4.11.328 6.176 4.539.293 9.023.328 13.496-.563 2.27-.453 4.45-1.289 6.7-1.761 4.448-.93 8.987-.399 13.472-1.325.246-.054 1.582-.394 1.625-.52.453-1.737.351-2.866-.496-4.448Zm-71.355 9.601V56.98c0-.156-1.648-2.52-1.796-2.597-.258-.145-1.375-.238-1.875-.406-1.93-.645-3.872-2.227-5.364-3.582-2.316 5.796 4.551 8.64 9.024 9.433Zm-.484 2.926c-3.617-.5-7.387-2.328-9.566-5.309l-.836-1.515c-.633 6.406 5.847 9.816 11.054 11.386-.347-1.492-.687-3.004-.652-4.554Zm79.645 4.879c2.246-1.176 4.586-2.262 6.777-3.547 2.969-1.762 6.426-3.852 6.062-7.84-3.703 3.684-8.75 5.356-13.742 6.496.078.95.508 1.93.7 2.903.124.64.238 1.32.214 1.988ZM60.3 59.5c-1.051-.047-2.125.066-3.176 0-2.992-.203-6.594-.68-9.566-1.164-2.79-.453-5.524-1.152-8.23-1.93.448 1.875.55 3.649.507 5.578 3.363 2.407 7.937 2.012 11.902 2.575 4.473.632 11.172 2.507 15.45 1.91 1.945-.274 3.82-1.086 5.75-1.403 3.285-.543 6.199.465 9.406.907 4.562.629 8.11.472 12.652-.149 3.352-.453 6.617-1.3 9.836-2.281-.687-2.156-1.207-4.438-.484-6.664-2.149-.61-4.215.191-6.282.465-1.863.234-3.785.113-5.648.37-3.363.454-6.57 2.09-9.879 2.802-4.328.925-8.7.656-12.98-.371-.395 3.351-4.957 7.394-7.801 3.984-.996-1.195-1.414-3.106-1.469-4.629ZM33.633 69.586c-1.887-.184-4.008-1.129-5.692-2.035-1.546-.836-2.98-1.84-4.144-3.172-2.168 2.406.394 3.84 2.305 5.004 1.906 1.164 4.132 2.133 6.144 3.285.473-1.016 1.422-1.863 1.375-3.082Zm-1.965 4.562c-2.652-.937-5.41-2.304-7.746-3.886-1.04-.7-2.281-2.473-2.168.047.133 2.992 4.98 7.386 7.906 7.703 1.875.215 1.727-2.598 1.996-3.875ZM39 77.063c-.418 4.156 1.613 5.464 4.922 7.023 3.695 1.738 6.777 2.328 10.742 3.074 1.797.336 2.938.043 4.719-.023 11.918-.43 23.91-1.176 35.746-2.778 7.254-.984 15.836-2.507 22.297-6 3.129-1.691 6.414-4.074 7.07-7.804-2.351 2.238-5.367 3.582-8.371 4.722-10.48 3.965-21.617 5.453-32.695 6.641-3.875.418-7.41-.621-11.192-.465-2.078.082-4.824.848-6.812.633-.406-.043-1.375-.45-1.457-.438-2.688.282-5.285-1.253-8.008-1.64-2.438-.336-5.012.094-7.406-.395-1.528-.304-2.973-1.14-4.485-1.535-1.105-.281-1.953-.25-2.992-.418-.746-.125-1.379-.363-2.078-.61Zm0 0"/></g><path fill="#f2ddd8" d="M85.168 10.55c.387.407-.723 1.141-1.016 1.345-1.613 1.097-6.605 3.343-8.46 3.015-.485-.09-.981-.406-.844-.96.316-1.298 5.59-2.575 6.867-2.856.508-.114 3.238-.758 3.441-.531Zm0 0"/><g clip-path="url(#b)"><g clip-path="url(#c)"><g clip-path="url(#d)"><path fill="#f2ddd8" d="M137.41 41.715a.82.82 0 0 0-.75-.07c-.347.148-.691.289-1 .484-.906.578-1.414 1.52-2.031 2.484-.117-.308-.211-.527-.281-.746-.328-1.012-.871-1.906-1.496-2.754q-.007-.005-.008-.015c-.586-.778-1.84-.399-1.883.578a3 3 0 0 0 0 .308c.066 1.864.36 3.684.969 5.45.41 1.175.84 2.34 1.238 3.52.074.218.117.448.16.687.043.242.3.386.524.285q.287-.123.515-.442c.531-.746 1.2-1.386 1.688-2.18.593-.976 1.34-1.863 1.933-2.84.45-.745.86-1.542 1.121-2.37.414-1.313.32-1.754-.699-2.38m-6.98 1.246.445 2.89c-.375-.937-.582-1.89-.445-2.89m1.605 1.715q-.082-.656-.168-1.313l.153-.02.16 1.317Zm1.285.488c-.257-.75-.511-1.504-.765-2.254.511.668.804 1.406.765 2.254m-.644-.023c.27.754.449 1.52.383 2.324-.309-.746-.293-1.547-.383-2.324m-.055 6.004c-.258-.25-.398-.56-.312-1.079l.671 1.024c-.117.02-.304.105-.359.055m1.29-1.704-.052-.007.141-1.118.05.004Zm.991-1.363-.187-.02c.168-.753.34-1.511.508-2.265l.074.012q-.194 1.137-.395 2.273m1-1.664-.086-.016.094-.476.05-.004-.062.496Zm.102-1.66-.129-.047.363-1.387.14.035q-.187.697-.374 1.399m.734.644c-.008-.722.266-1.39.473-2.066.098.75-.125 1.422-.473 2.066m.922-2.058-.203-.645a.308.308 0 0 0-.441-.175l-.153.085c.067-.171.078-.351.153-.382.336-.13.695.125.714.496.016.191-.039.383-.07.62m0 0"/></g></g></g></svg>